<?xml version="1.0" standalone="no"?>
<!DOCTYPE svg PUBLIC "-//W3C//DTD SVG 20010904//EN"
 "http://www.w3.org/TR/2001/REC-SVG-20010904/DTD/svg10.dtd">
<svg version="1.0" xmlns="http://www.w3.org/2000/svg"
 width="300.000000pt" height="300.000000pt" viewBox="0 0 300.000000 300.000000"
 preserveAspectRatio="xMidYMid meet">
<metadata>
Created by potrace 1.10, written by Peter Selinger 2001-2011
</metadata>
<g transform="translate(0.000000,300.000000) scale(0.100000,-0.100000)"
fill="#000000" stroke="none">
<path d="M1310 2654 c-25 -9 -63 -29 -85 -44 -61 -44 -1181 -1170 -1200 -1209
-9 -18 -19 -57 -22 -85 -11 -103 -5 -110 445 -558 438 -437 427 -428 532 -428
25 0 64 9 87 20 73 33 1211 1179 1259 1268 0 1 30 -4 65 -12 291 -68 517 -18
585 128 39 84 26 171 -39 270 -97 147 -290 283 -559 395 -41 17 -48 24 -48 48
-1 70 -70 161 -148 195 -40 18 -77 20 -435 24 -347 4 -397 3 -437 -12z m578
-345 c58 -28 102 -96 102 -156 l0 -42 83 -49 c71 -42 242 -122 261 -122 3 0 6
59 6 130 0 72 4 130 8 130 17 0 204 -100 255 -136 110 -79 197 -179 197 -228
0 -42 -39 -60 -145 -64 -106 -5 -211 13 -347 58 -95 32 -248 106 -316 152 -40
27 -45 29 -61 14 -27 -25 -87 -46 -131 -46 -78 0 -158 62 -180 138 -12 46 -12
58 0 104 31 112 161 168 268 117z"/>
</g>
</svg>
