<?xml version="1.0" standalone="no"?>
<!DOCTYPE svg PUBLIC "-//W3C//DTD SVG 20010904//EN"
 "http://www.w3.org/TR/2001/REC-SVG-20010904/DTD/svg10.dtd">
<svg version="1.0" xmlns="http://www.w3.org/2000/svg"
 width="256.000000pt" height="256.000000pt" viewBox="0 0 256.000000 256.000000"
 preserveAspectRatio="xMidYMid meet">
<metadata>
Created by potrace 1.10, written by Peter Selinger 2001-2011
</metadata>
<g transform="translate(0.000000,256.000000) scale(0.100000,-0.100000)"
fill="#000000" stroke="none">
<path d="M995 2331 c-16 -10 -111 -85 -210 -165 l-180 -146 -5 118 -5 117
-132 3 -133 3 -2 -233 -3 -233 -115 -92 c-63 -51 -125 -104 -137 -118 -54 -61
-10 -155 71 -155 39 0 64 19 475 349 l434 350 151 -123 c642 -521 714 -576
754 -576 48 0 77 21 92 64 20 61 3 80 -255 288 -735 592 -704 568 -738 568
-18 0 -45 -9 -62 -19z"/>
<path d="M936 1758 c-7 -13 -19 -47 -26 -77 -25 -108 -96 -152 -198 -124 -106
30 -109 28 -163 -62 -26 -44 -48 -89 -49 -100 0 -12 20 -40 46 -65 63 -62 77
-93 72 -152 -5 -44 -12 -56 -62 -107 -31 -31 -56 -65 -56 -76 0 -11 21 -56 48
-100 45 -76 49 -80 82 -79 19 1 60 7 90 14 107 25 159 -12 193 -135 l23 -80
108 -3 c65 -2 113 1 121 8 7 6 18 37 25 69 16 77 39 113 83 134 43 21 82 21
137 2 84 -30 93 -25 149 74 28 48 51 92 51 98 0 5 -25 33 -55 63 -97 95 -99
164 -10 251 30 29 58 61 61 71 5 17 -76 167 -102 189 -11 9 -30 8 -81 -6 -78
-21 -111 -22 -150 -2 -45 24 -60 47 -82 124 -11 40 -22 77 -26 83 -3 6 -51 10
-110 10 -98 0 -105 -2 -119 -22z m209 -347 c121 -54 176 -191 125 -309 -40
-92 -119 -144 -222 -143 -175 1 -286 185 -207 343 22 43 83 97 130 114 50 18
128 16 174 -5z"/>
<path d="M1828 1029 c-38 -22 -68 -45 -68 -51 0 -7 7 -37 16 -68 14 -51 14
-60 0 -93 -16 -39 -46 -58 -124 -77 l-43 -11 3 -91 3 -92 55 -14 c60 -15 105
-50 115 -89 3 -14 -1 -50 -10 -80 -9 -30 -14 -61 -11 -68 6 -16 121 -85 142
-85 9 0 32 18 51 40 67 75 133 75 200 0 20 -22 43 -40 51 -40 18 0 138 66 147
80 4 6 -1 35 -10 66 -28 98 0 147 102 175 l58 16 3 85 c3 96 2 98 -73 116 -88
22 -119 79 -91 167 9 28 16 57 16 63 0 9 -133 92 -148 92 -3 0 -28 -21 -55
-47 -44 -44 -52 -48 -97 -48 -45 0 -53 4 -97 48 -27 26 -53 47 -58 47 -6 -1
-40 -19 -77 -41z m299 -220 c34 -13 80 -55 99 -91 20 -39 18 -122 -6 -168 -24
-46 -62 -75 -121 -91 -147 -39 -275 130 -201 266 12 24 59 68 87 83 26 15 106
15 142 1z"/>
</g>
</svg>
