<?xml version="1.0" standalone="no"?>
<!DOCTYPE svg PUBLIC "-//W3C//DTD SVG 20010904//EN"
 "http://www.w3.org/TR/2001/REC-SVG-20010904/DTD/svg10.dtd">
<svg version="1.0" xmlns="http://www.w3.org/2000/svg"
 width="512.000000pt" height="512.000000pt" viewBox="0 0 512.000000 512.000000"
 preserveAspectRatio="xMidYMid meet">

<g transform="translate(0.000000,512.000000) scale(0.100000,-0.100000)"
fill="#000000" stroke="none">
<path d="M2911 5109 c-170 -33 -329 -128 -436 -259 -57 -69 -119 -194 -141
-282 -16 -67 -17 -68 -58 -78 -135 -35 -284 -107 -399 -194 -317 -239 -490
-602 -474 -996 4 -79 14 -167 25 -212 l19 -76 -114 -114 -113 -113 0 -132 0
-133 -133 0 -132 0 -93 -93 -92 -92 0 -133 0 -132 -133 0 -133 0 -92 -94 -92
-94 2 -393 3 -394 395 -3 394 -2 566 563 565 564 75 -19 c110 -28 330 -35 446
-14 75 13 206 48 271 73 10 4 13 -37 13 -218 l0 -224 92 -92 93 -93 -93 -93
-92 -92 0 -130 0 -130 92 -92 93 -93 -93 -93 -92 -92 0 -130 0 -130 284 -277
283 -276 276 276 277 277 0 892 0 892 85 55 c105 69 230 186 308 291 77 102
159 272 193 400 35 133 45 373 20 507 -91 485 -465 861 -947 953 -45 8 -83 15
-84 15 -2 0 -6 15 -10 33 -4 17 -26 73 -50 123 -74 153 -215 285 -375 350
-119 48 -283 66 -399 43z m234 -304 c77 -20 157 -68 207 -125 37 -41 84 -118
76 -125 -2 -1 -49 -14 -104 -28 -56 -14 -138 -41 -182 -60 l-81 -35 -83 29
c-88 30 -187 53 -280 64 -34 4 -58 11 -58 18 0 26 60 115 107 159 112 104 253
140 398 103z m315 -830 l0 -275 150 0 150 0 0 275 c0 194 3 275 11 275 35 0
146 -37 226 -75 234 -113 413 -335 473 -585 29 -124 28 -297 -4 -422 -67 -265
-254 -484 -506 -593 -36 -16 -71 -33 -77 -38 -10 -7 -13 -206 -13 -936 l0
-926 -122 -122 c-68 -68 -127 -123 -133 -123 -5 0 -67 57 -137 127 l-128 128
155 155 155 155 -155 155 c-85 85 -155 159 -155 165 0 5 70 80 155 165 l155
155 -155 155 -155 155 0 296 0 296 -62 27 c-211 91 -379 250 -473 447 -125
264 -108 571 46 832 55 93 191 229 292 292 73 45 249 115 290 115 16 0 17 -20
17 -275z m-709 238 c6 -6 -12 -36 -51 -82 -228 -272 -318 -647 -241 -998 46
-210 149 -404 301 -567 68 -72 70 -67 -34 -85 -76 -14 -215 -14 -292 -1 -32 6
-107 27 -167 48 l-108 36 -587 -587 -588 -587 -179 2 -180 3 0 185 0 185 222
3 223 2 2 223 3 222 223 3 222 2 0 218 0 217 139 139 139 138 -24 59 c-55 136
-69 205 -69 359 0 120 4 158 23 223 94 329 345 567 677 641 77 17 329 16 346
-1z"/>
</g>
</svg>
