<?xml version="1.0" standalone="no"?>
<!DOCTYPE svg PUBLIC "-//W3C//DTD SVG 20010904//EN"
 "http://www.w3.org/TR/2001/REC-SVG-20010904/DTD/svg10.dtd">
<svg version="1.0" xmlns="http://www.w3.org/2000/svg"
 width="300.000000pt" height="283.000000pt" viewBox="0 0 300.000000 283.000000"
 preserveAspectRatio="xMidYMid meet">
<metadata>
Created by potrace 1.10, written by Peter Selinger 2001-2011
</metadata>
<g transform="translate(0.000000,283.000000) scale(0.100000,-0.100000)"
fill="#000000" stroke="none">
<path d="M2215 2404 c-11 -8 -92 -52 -180 -96 -164 -83 -448 -234 -510 -271
-11 -7 -42 -26 -70 -42 -125 -74 -285 -190 -343 -247 -78 -78 -144 -182 -171
-272 -12 -37 -21 -74 -21 -81 0 -7 44 -30 97 -50 174 -67 285 -136 377 -234
26 -29 49 -51 51 -49 5 6 105 229 105 234 0 12 64 153 110 246 47 92 83 147
185 283 25 33 52 69 59 80 30 42 23 7 -14 -70 -21 -44 -52 -114 -69 -155 -18
-41 -41 -94 -52 -118 -12 -24 -22 -48 -23 -55 -1 -7 -11 -37 -23 -67 -49 -130
-74 -200 -97 -280 -54 -183 -76 -267 -81 -309 -3 -24 -7 -47 -10 -50 -20 -33
-56 -418 -42 -454 5 -12 16 -12 74 -1 155 30 322 101 420 180 111 90 164 154
222 269 112 227 137 566 70 955 -25 145 -42 399 -37 553 2 64 2 117 -1 117 -4
0 -15 -8 -26 -16z"/>
<path d="M505 1383 c5 -32 10 -177 11 -323 1 -146 6 -285 12 -310 5 -25 15
-67 20 -95 44 -212 209 -370 423 -404 109 -18 119 -16 119 22 0 17 -7 61 -16
97 -9 36 -17 74 -20 84 -7 34 -62 190 -94 264 -44 104 -134 276 -205 392 -18
30 -31 57 -28 60 5 5 22 -13 123 -129 96 -110 111 -128 194 -246 95 -135 180
-288 221 -397 10 -27 21 -48 26 -48 4 0 15 12 23 28 141 258 135 515 -16 658
-38 37 -169 124 -187 124 -5 0 -130 52 -216 89 -114 50 -278 130 -348 170 -21
11 -40 21 -44 21 -3 0 -2 -26 2 -57z"/>
</g>
</svg>
