<?xml version="1.0" standalone="no"?>
<!DOCTYPE svg PUBLIC "-//W3C//DTD SVG 20010904//EN"
 "http://www.w3.org/TR/2001/REC-SVG-20010904/DTD/svg10.dtd">
<svg version="1.0" xmlns="http://www.w3.org/2000/svg"
 width="500.000000pt" height="500.000000pt" viewBox="0 0 500.000000 500.000000"
 preserveAspectRatio="xMidYMid meet">

<g transform="translate(0.000000,500.000000) scale(0.100000,-0.100000)"
fill="#000000" stroke="none">
<path d="M3376 4895 c-64 -599 -153 -810 -388 -924 -125 -60 -363 -113 -613
-136 -124 -12 -114 -18 65 -41 384 -49 554 -104 679 -220 99 -91 151 -207 200
-439 17 -80 57 -369 62 -444 1 -9 11 69 24 173 75 607 178 768 557 865 115 30
322 64 466 77 40 4 71 9 68 11 -2 2 -90 15 -196 29 -687 87 -814 222 -898 959
l-18 160 -8 -70z"/>
<path d="M1391 4130 c-13 -172 -52 -389 -87 -492 -32 -94 -62 -144 -122 -200
-108 -101 -256 -148 -602 -190 l-105 -12 115 -13 c395 -44 555 -108 652 -257
65 -101 108 -265 139 -531 l13 -110 8 60 c43 329 61 412 108 512 39 85 74 129
143 180 97 71 283 119 587 151 l75 7 -149 19 c-466 57 -623 157 -700 444 -13
50 -31 144 -40 209 -25 187 -33 239 -35 223z"/>
<path d="M2621 3290 c-55 -506 -118 -804 -203 -975 -175 -348 -451 -474 -1223
-561 -126 -14 -231 -27 -232 -28 -1 -1 91 -12 205 -25 695 -77 998 -188 1166
-425 143 -201 221 -501 287 -1106 l13 -115 13 115 c45 404 92 668 149 832 42
119 62 161 117 243 178 263 425 361 1131 449 288 36 287 33 21 61 -167 18
-404 56 -534 86 -467 107 -662 299 -780 766 -34 137 -61 310 -94 598 l-23 200
-13 -115z"/>
</g>
</svg>
